<mxfile host="app.diagrams.net" modified="2024-05-02T14:49:33.277Z" agent="Mozilla/5.0 (Windows NT 10.0; Win64; x64) AppleWebKit/537.36 (KHTML, like Gecko) Chrome/124.0.0.0 Safari/537.36" etag="Rox5Sv1TyMigHqDedKMe" version="24.3.1" type="device">
  <diagram name="Página-1" id="odwVUHJU00kEWPwRS_iz">
    <mxGraphModel dx="2074" dy="2051" grid="0" gridSize="10" guides="1" tooltips="1" connect="1" arrows="1" fold="1" page="0" pageScale="1" pageWidth="827" pageHeight="1169" math="0" shadow="0">
      <root>
        <mxCell id="0" />
        <mxCell id="1" parent="0" />
        <mxCell id="msyZA52gmdJhK6XsZQX_-8" style="edgeStyle=none;curved=1;rounded=0;orthogonalLoop=1;jettySize=auto;html=1;entryX=0.5;entryY=0;entryDx=0;entryDy=0;fontSize=12;startSize=8;endSize=8;" parent="1" source="msyZA52gmdJhK6XsZQX_-1" target="msyZA52gmdJhK6XsZQX_-3" edge="1">
          <mxGeometry relative="1" as="geometry" />
        </mxCell>
        <mxCell id="msyZA52gmdJhK6XsZQX_-1" value="" style="ellipse;html=1;shape=startState;fillColor=#000000;strokeColor=none;" parent="1" vertex="1">
          <mxGeometry x="414" y="-334" width="30" height="30" as="geometry" />
        </mxCell>
        <mxCell id="msyZA52gmdJhK6XsZQX_-27" style="edgeStyle=none;curved=1;rounded=0;orthogonalLoop=1;jettySize=auto;html=1;entryX=0.627;entryY=0;entryDx=0;entryDy=0;fontSize=12;startSize=8;endSize=8;entryPerimeter=0;exitX=0.5;exitY=1;exitDx=0;exitDy=0;" parent="1" source="msyZA52gmdJhK6XsZQX_-3" target="msyZA52gmdJhK6XsZQX_-23" edge="1">
          <mxGeometry relative="1" as="geometry" />
        </mxCell>
        <mxCell id="msyZA52gmdJhK6XsZQX_-30" style="edgeStyle=none;curved=1;rounded=0;orthogonalLoop=1;jettySize=auto;html=1;entryX=0.373;entryY=0.04;entryDx=0;entryDy=0;fontSize=12;startSize=8;endSize=8;exitX=0.75;exitY=1;exitDx=0;exitDy=0;entryPerimeter=0;" parent="1" source="msyZA52gmdJhK6XsZQX_-3" target="msyZA52gmdJhK6XsZQX_-28" edge="1">
          <mxGeometry relative="1" as="geometry" />
        </mxCell>
        <mxCell id="msyZA52gmdJhK6XsZQX_-38" style="edgeStyle=none;curved=1;rounded=0;orthogonalLoop=1;jettySize=auto;html=1;entryX=0;entryY=0.25;entryDx=0;entryDy=0;fontSize=12;startSize=8;endSize=8;" parent="1" source="msyZA52gmdJhK6XsZQX_-3" target="msyZA52gmdJhK6XsZQX_-35" edge="1">
          <mxGeometry relative="1" as="geometry" />
        </mxCell>
        <mxCell id="msyZA52gmdJhK6XsZQX_-70" style="edgeStyle=orthogonalEdgeStyle;rounded=0;orthogonalLoop=1;jettySize=auto;html=1;fontSize=12;startSize=8;endSize=8;exitX=1;exitY=0.5;exitDx=0;exitDy=0;entryX=0.085;entryY=1.037;entryDx=0;entryDy=0;entryPerimeter=0;" parent="1" source="msyZA52gmdJhK6XsZQX_-3" edge="1">
          <mxGeometry relative="1" as="geometry">
            <mxPoint x="474.65" y="-167.85" as="sourcePoint" />
            <mxPoint x="618.0000000000001" y="-190.99999999999986" as="targetPoint" />
            <Array as="points">
              <mxPoint x="551" y="-158" />
              <mxPoint x="551" y="-191" />
            </Array>
          </mxGeometry>
        </mxCell>
        <mxCell id="2j-AMi9KaPL6b5V7sGCD-3" style="edgeStyle=none;curved=1;rounded=0;orthogonalLoop=1;jettySize=auto;html=1;entryX=0.977;entryY=0.009;entryDx=0;entryDy=0;fontSize=12;startSize=8;endSize=8;entryPerimeter=0;" edge="1" parent="1" source="msyZA52gmdJhK6XsZQX_-3" target="msyZA52gmdJhK6XsZQX_-42">
          <mxGeometry relative="1" as="geometry" />
        </mxCell>
        <mxCell id="msyZA52gmdJhK6XsZQX_-3" value="Página inicio" style="html=1;whiteSpace=wrap;rounded=1;" parent="1" vertex="1">
          <mxGeometry x="374" y="-183" width="110" height="50" as="geometry" />
        </mxCell>
        <mxCell id="msyZA52gmdJhK6XsZQX_-24" style="edgeStyle=none;curved=1;rounded=0;orthogonalLoop=1;jettySize=auto;html=1;entryX=0.5;entryY=1;entryDx=0;entryDy=0;fontSize=12;startSize=8;endSize=8;" parent="1" target="msyZA52gmdJhK6XsZQX_-3" edge="1">
          <mxGeometry relative="1" as="geometry">
            <mxPoint x="236" y="69" as="sourcePoint" />
          </mxGeometry>
        </mxCell>
        <mxCell id="msyZA52gmdJhK6XsZQX_-29" style="edgeStyle=none;curved=1;rounded=0;orthogonalLoop=1;jettySize=auto;html=1;entryX=0;entryY=0.5;entryDx=0;entryDy=0;fontSize=12;startSize=8;endSize=8;" parent="1" source="msyZA52gmdJhK6XsZQX_-23" target="msyZA52gmdJhK6XsZQX_-28" edge="1">
          <mxGeometry relative="1" as="geometry" />
        </mxCell>
        <mxCell id="msyZA52gmdJhK6XsZQX_-78" style="edgeStyle=elbowEdgeStyle;rounded=0;orthogonalLoop=1;jettySize=auto;html=1;fontSize=12;startSize=8;endSize=8;exitX=0;exitY=0.5;exitDx=0;exitDy=0;entryX=0;entryY=0.25;entryDx=0;entryDy=0;" parent="1" source="msyZA52gmdJhK6XsZQX_-23" target="msyZA52gmdJhK6XsZQX_-68" edge="1">
          <mxGeometry relative="1" as="geometry">
            <Array as="points">
              <mxPoint x="14" y="27" />
            </Array>
            <mxPoint x="617" y="-230" as="targetPoint" />
          </mxGeometry>
        </mxCell>
        <mxCell id="2j-AMi9KaPL6b5V7sGCD-5" style="edgeStyle=none;curved=1;rounded=0;orthogonalLoop=1;jettySize=auto;html=1;entryX=0.75;entryY=1;entryDx=0;entryDy=0;fontSize=12;startSize=8;endSize=8;" edge="1" parent="1" source="msyZA52gmdJhK6XsZQX_-23" target="msyZA52gmdJhK6XsZQX_-42">
          <mxGeometry relative="1" as="geometry" />
        </mxCell>
        <mxCell id="msyZA52gmdJhK6XsZQX_-23" value="Ver / Editar Detalles Casa Rural" style="html=1;whiteSpace=wrap;rounded=1;" parent="1" vertex="1">
          <mxGeometry x="166" y="71" width="110" height="50" as="geometry" />
        </mxCell>
        <mxCell id="msyZA52gmdJhK6XsZQX_-32" style="edgeStyle=none;curved=1;rounded=0;orthogonalLoop=1;jettySize=auto;html=1;fontSize=12;startSize=8;endSize=8;entryX=0.75;entryY=1;entryDx=0;entryDy=0;exitX=0.362;exitY=0.033;exitDx=0;exitDy=0;exitPerimeter=0;" parent="1" source="msyZA52gmdJhK6XsZQX_-28" target="msyZA52gmdJhK6XsZQX_-3" edge="1">
          <mxGeometry relative="1" as="geometry" />
        </mxCell>
        <mxCell id="msyZA52gmdJhK6XsZQX_-41" style="edgeStyle=none;curved=1;rounded=0;orthogonalLoop=1;jettySize=auto;html=1;fontSize=12;startSize=8;endSize=8;" parent="1" source="msyZA52gmdJhK6XsZQX_-28" target="msyZA52gmdJhK6XsZQX_-35" edge="1">
          <mxGeometry relative="1" as="geometry" />
        </mxCell>
        <mxCell id="msyZA52gmdJhK6XsZQX_-53" style="edgeStyle=none;curved=1;rounded=0;orthogonalLoop=1;jettySize=auto;html=1;fontSize=12;startSize=8;endSize=8;" parent="1" source="msyZA52gmdJhK6XsZQX_-28" edge="1">
          <mxGeometry relative="1" as="geometry">
            <mxPoint x="485" y="25" as="targetPoint" />
          </mxGeometry>
        </mxCell>
        <mxCell id="msyZA52gmdJhK6XsZQX_-76" style="edgeStyle=elbowEdgeStyle;rounded=0;orthogonalLoop=1;jettySize=auto;html=1;entryX=1;entryY=0.5;entryDx=0;entryDy=0;fontSize=12;startSize=8;endSize=8;" parent="1" source="msyZA52gmdJhK6XsZQX_-28" target="msyZA52gmdJhK6XsZQX_-68" edge="1">
          <mxGeometry relative="1" as="geometry">
            <Array as="points">
              <mxPoint x="754" y="-57" />
            </Array>
          </mxGeometry>
        </mxCell>
        <mxCell id="msyZA52gmdJhK6XsZQX_-28" value="Ver/Editar Perfil" style="html=1;whiteSpace=wrap;rounded=1;" parent="1" vertex="1">
          <mxGeometry x="618" y="67" width="110" height="50" as="geometry" />
        </mxCell>
        <mxCell id="msyZA52gmdJhK6XsZQX_-39" style="edgeStyle=none;curved=1;rounded=0;orthogonalLoop=1;jettySize=auto;html=1;fontSize=12;startSize=8;endSize=8;entryX=0.99;entryY=0.94;entryDx=0;entryDy=0;entryPerimeter=0;exitX=0;exitY=0.25;exitDx=0;exitDy=0;" parent="1" edge="1" target="msyZA52gmdJhK6XsZQX_-3" source="msyZA52gmdJhK6XsZQX_-35">
          <mxGeometry relative="1" as="geometry">
            <mxPoint x="751" y="-76.46153846153857" as="sourcePoint" />
            <mxPoint x="485" y="-145" as="targetPoint" />
          </mxGeometry>
        </mxCell>
        <mxCell id="msyZA52gmdJhK6XsZQX_-40" style="edgeStyle=none;curved=1;rounded=0;orthogonalLoop=1;jettySize=auto;html=1;fontSize=12;startSize=8;endSize=8;" parent="1" source="msyZA52gmdJhK6XsZQX_-35" target="msyZA52gmdJhK6XsZQX_-28" edge="1">
          <mxGeometry relative="1" as="geometry" />
        </mxCell>
        <mxCell id="msyZA52gmdJhK6XsZQX_-46" style="edgeStyle=none;curved=1;rounded=0;orthogonalLoop=1;jettySize=auto;html=1;fontSize=12;startSize=8;endSize=8;" parent="1" source="msyZA52gmdJhK6XsZQX_-35" target="msyZA52gmdJhK6XsZQX_-42" edge="1">
          <mxGeometry relative="1" as="geometry" />
        </mxCell>
        <mxCell id="msyZA52gmdJhK6XsZQX_-35" value="Buscador usuarios" style="html=1;whiteSpace=wrap;rounded=1;" parent="1" vertex="1">
          <mxGeometry x="618" y="-97" width="110" height="50" as="geometry" />
        </mxCell>
        <mxCell id="msyZA52gmdJhK6XsZQX_-45" style="edgeStyle=none;curved=1;rounded=0;orthogonalLoop=1;jettySize=auto;html=1;fontSize=12;startSize=8;endSize=8;" parent="1" source="msyZA52gmdJhK6XsZQX_-42" target="msyZA52gmdJhK6XsZQX_-35" edge="1">
          <mxGeometry relative="1" as="geometry" />
        </mxCell>
        <mxCell id="msyZA52gmdJhK6XsZQX_-48" style="edgeStyle=orthogonalEdgeStyle;rounded=0;orthogonalLoop=1;jettySize=auto;html=1;fontSize=12;startSize=8;endSize=8;exitX=0.618;exitY=1.003;exitDx=0;exitDy=0;exitPerimeter=0;entryX=0.5;entryY=1;entryDx=0;entryDy=0;" parent="1" source="msyZA52gmdJhK6XsZQX_-42" target="msyZA52gmdJhK6XsZQX_-28" edge="1">
          <mxGeometry relative="1" as="geometry">
            <mxPoint x="182" y="206" as="sourcePoint" />
            <mxPoint x="656" y="332.34026465028364" as="targetPoint" />
            <Array as="points">
              <mxPoint x="102" y="148" />
              <mxPoint x="673" y="148" />
            </Array>
          </mxGeometry>
        </mxCell>
        <mxCell id="msyZA52gmdJhK6XsZQX_-66" style="edgeStyle=none;curved=1;rounded=0;orthogonalLoop=1;jettySize=auto;html=1;entryX=0.5;entryY=1;entryDx=0;entryDy=0;fontSize=12;startSize=8;endSize=8;" parent="1" source="msyZA52gmdJhK6XsZQX_-42" target="msyZA52gmdJhK6XsZQX_-64" edge="1">
          <mxGeometry relative="1" as="geometry" />
        </mxCell>
        <mxCell id="msyZA52gmdJhK6XsZQX_-80" style="edgeStyle=elbowEdgeStyle;rounded=0;orthogonalLoop=1;jettySize=auto;html=1;fontSize=12;startSize=8;endSize=8;exitX=1;exitY=0;exitDx=0;exitDy=0;" parent="1" edge="1">
          <mxGeometry relative="1" as="geometry">
            <mxPoint x="144" y="-90" as="sourcePoint" />
            <mxPoint x="618" y="-209" as="targetPoint" />
            <Array as="points">
              <mxPoint x="212" y="-139" />
            </Array>
          </mxGeometry>
        </mxCell>
        <mxCell id="2j-AMi9KaPL6b5V7sGCD-4" style="edgeStyle=none;curved=1;rounded=0;orthogonalLoop=1;jettySize=auto;html=1;fontSize=12;startSize=8;endSize=8;exitX=0.975;exitY=0.014;exitDx=0;exitDy=0;exitPerimeter=0;" edge="1" parent="1" source="msyZA52gmdJhK6XsZQX_-42" target="msyZA52gmdJhK6XsZQX_-3">
          <mxGeometry relative="1" as="geometry" />
        </mxCell>
        <mxCell id="msyZA52gmdJhK6XsZQX_-42" value="Administrar Comodidades" style="html=1;whiteSpace=wrap;rounded=1;" parent="1" vertex="1">
          <mxGeometry x="34" y="-99" width="110" height="50" as="geometry" />
        </mxCell>
        <mxCell id="msyZA52gmdJhK6XsZQX_-50" style="edgeStyle=orthogonalEdgeStyle;rounded=0;orthogonalLoop=1;jettySize=auto;html=1;fontSize=12;startSize=8;endSize=8;entryX=0.612;entryY=0.983;entryDx=0;entryDy=0;exitX=0.5;exitY=1;exitDx=0;exitDy=0;entryPerimeter=0;" parent="1" source="msyZA52gmdJhK6XsZQX_-28" target="msyZA52gmdJhK6XsZQX_-42" edge="1">
          <mxGeometry relative="1" as="geometry">
            <mxPoint x="693" y="143.34026465028364" as="sourcePoint" />
            <mxPoint x="219" y="17" as="targetPoint" />
            <Array as="points">
              <mxPoint x="673" y="149" />
              <mxPoint x="101" y="149" />
            </Array>
          </mxGeometry>
        </mxCell>
        <mxCell id="msyZA52gmdJhK6XsZQX_-52" style="edgeStyle=none;curved=1;rounded=0;orthogonalLoop=1;jettySize=auto;html=1;fontSize=12;startSize=8;endSize=8;exitX=1;exitY=0.75;exitDx=0;exitDy=0;" parent="1" source="msyZA52gmdJhK6XsZQX_-51" target="msyZA52gmdJhK6XsZQX_-28" edge="1">
          <mxGeometry relative="1" as="geometry" />
        </mxCell>
        <mxCell id="msyZA52gmdJhK6XsZQX_-54" style="edgeStyle=none;curved=1;rounded=0;orthogonalLoop=1;jettySize=auto;html=1;entryX=1;entryY=0.25;entryDx=0;entryDy=0;fontSize=12;startSize=8;endSize=8;" parent="1" source="msyZA52gmdJhK6XsZQX_-51" target="msyZA52gmdJhK6XsZQX_-23" edge="1">
          <mxGeometry relative="1" as="geometry" />
        </mxCell>
        <mxCell id="msyZA52gmdJhK6XsZQX_-82" style="edgeStyle=none;curved=1;rounded=0;orthogonalLoop=1;jettySize=auto;html=1;fontSize=12;startSize=8;endSize=8;" parent="1" source="msyZA52gmdJhK6XsZQX_-51" target="msyZA52gmdJhK6XsZQX_-68" edge="1">
          <mxGeometry relative="1" as="geometry" />
        </mxCell>
        <mxCell id="-O1WCtpbnKnp9MO-WSxZ-2" style="edgeStyle=none;curved=1;rounded=0;orthogonalLoop=1;jettySize=auto;html=1;fontSize=12;startSize=8;endSize=8;entryX=0.981;entryY=0.903;entryDx=0;entryDy=0;entryPerimeter=0;" parent="1" target="msyZA52gmdJhK6XsZQX_-42" edge="1">
          <mxGeometry relative="1" as="geometry">
            <mxPoint x="372" y="13" as="sourcePoint" />
            <mxPoint x="170" y="-58" as="targetPoint" />
          </mxGeometry>
        </mxCell>
        <mxCell id="msyZA52gmdJhK6XsZQX_-51" value="&lt;font style=&quot;font-size: 9px;&quot;&gt;&lt;b&gt;Ver Casas propias en Alquiler / Ver Casas Rurales de otro usuario&lt;/b&gt;&lt;/font&gt;" style="html=1;whiteSpace=wrap;rounded=1;" parent="1" vertex="1">
          <mxGeometry x="374" y="-12" width="110" height="50" as="geometry" />
        </mxCell>
        <mxCell id="msyZA52gmdJhK6XsZQX_-58" style="edgeStyle=none;curved=1;rounded=0;orthogonalLoop=1;jettySize=auto;html=1;entryX=0.617;entryY=0.971;entryDx=0;entryDy=0;entryPerimeter=0;fontSize=12;startSize=8;endSize=8;exitX=0.612;exitY=0.009;exitDx=0;exitDy=0;exitPerimeter=0;" parent="1" source="msyZA52gmdJhK6XsZQX_-51" target="msyZA52gmdJhK6XsZQX_-3" edge="1">
          <mxGeometry relative="1" as="geometry" />
        </mxCell>
        <mxCell id="msyZA52gmdJhK6XsZQX_-67" style="edgeStyle=none;curved=1;rounded=0;orthogonalLoop=1;jettySize=auto;html=1;entryX=0;entryY=0.5;entryDx=0;entryDy=0;fontSize=12;startSize=8;endSize=8;" parent="1" source="msyZA52gmdJhK6XsZQX_-64" target="msyZA52gmdJhK6XsZQX_-3" edge="1">
          <mxGeometry relative="1" as="geometry" />
        </mxCell>
        <mxCell id="msyZA52gmdJhK6XsZQX_-64" value="Modificar / Crear comodidad" style="html=1;whiteSpace=wrap;rounded=1;" parent="1" vertex="1">
          <mxGeometry x="34" y="-183" width="110" height="50" as="geometry" />
        </mxCell>
        <mxCell id="msyZA52gmdJhK6XsZQX_-69" style="edgeStyle=orthogonalEdgeStyle;rounded=0;orthogonalLoop=1;jettySize=auto;html=1;entryX=1;entryY=0.5;entryDx=0;entryDy=0;fontSize=12;startSize=8;endSize=8;" parent="1" source="msyZA52gmdJhK6XsZQX_-68" target="msyZA52gmdJhK6XsZQX_-3" edge="1">
          <mxGeometry relative="1" as="geometry">
            <Array as="points">
              <mxPoint x="551" y="-191" />
              <mxPoint x="551" y="-158" />
            </Array>
          </mxGeometry>
        </mxCell>
        <mxCell id="msyZA52gmdJhK6XsZQX_-71" style="edgeStyle=none;curved=1;rounded=0;orthogonalLoop=1;jettySize=auto;html=1;entryX=0.5;entryY=0;entryDx=0;entryDy=0;fontSize=12;startSize=8;endSize=8;" parent="1" source="msyZA52gmdJhK6XsZQX_-68" target="msyZA52gmdJhK6XsZQX_-35" edge="1">
          <mxGeometry relative="1" as="geometry" />
        </mxCell>
        <mxCell id="msyZA52gmdJhK6XsZQX_-75" style="edgeStyle=elbowEdgeStyle;rounded=0;orthogonalLoop=1;jettySize=auto;html=1;entryX=1;entryY=0.5;entryDx=0;entryDy=0;fontSize=12;startSize=8;endSize=8;" parent="1" source="msyZA52gmdJhK6XsZQX_-68" target="msyZA52gmdJhK6XsZQX_-28" edge="1">
          <mxGeometry relative="1" as="geometry">
            <Array as="points">
              <mxPoint x="755" y="-60" />
            </Array>
          </mxGeometry>
        </mxCell>
        <mxCell id="msyZA52gmdJhK6XsZQX_-77" style="edgeStyle=elbowEdgeStyle;rounded=0;orthogonalLoop=1;jettySize=auto;html=1;entryX=0;entryY=0.5;entryDx=0;entryDy=0;fontSize=12;startSize=8;endSize=8;" parent="1" target="msyZA52gmdJhK6XsZQX_-23" edge="1">
          <mxGeometry relative="1" as="geometry">
            <Array as="points">
              <mxPoint x="15" y="7" />
            </Array>
            <mxPoint x="616" y="-220" as="sourcePoint" />
          </mxGeometry>
        </mxCell>
        <mxCell id="msyZA52gmdJhK6XsZQX_-79" style="edgeStyle=orthogonalEdgeStyle;rounded=0;orthogonalLoop=1;jettySize=auto;html=1;entryX=1;entryY=0;entryDx=0;entryDy=0;fontSize=12;startSize=8;endSize=8;" parent="1" edge="1">
          <mxGeometry relative="1" as="geometry">
            <Array as="points">
              <mxPoint x="212" y="-209" />
              <mxPoint x="212" y="-90" />
            </Array>
            <mxPoint x="618" y="-209" as="sourcePoint" />
            <mxPoint x="144" y="-90" as="targetPoint" />
          </mxGeometry>
        </mxCell>
        <mxCell id="msyZA52gmdJhK6XsZQX_-68" value="Ver reservas" style="html=1;whiteSpace=wrap;rounded=1;" parent="1" vertex="1">
          <mxGeometry x="618" y="-233" width="110" height="50" as="geometry" />
        </mxCell>
        <mxCell id="msyZA52gmdJhK6XsZQX_-72" style="edgeStyle=none;curved=1;rounded=0;orthogonalLoop=1;jettySize=auto;html=1;entryX=0.5;entryY=1;entryDx=0;entryDy=0;fontSize=12;startSize=8;endSize=8;exitX=0.5;exitY=0;exitDx=0;exitDy=0;" parent="1" source="msyZA52gmdJhK6XsZQX_-35" target="msyZA52gmdJhK6XsZQX_-68" edge="1">
          <mxGeometry relative="1" as="geometry">
            <mxPoint x="756" y="-87" as="sourcePoint" />
          </mxGeometry>
        </mxCell>
        <mxCell id="-O1WCtpbnKnp9MO-WSxZ-5" value="&lt;div&gt;&lt;br/&gt;&lt;/div&gt;" style="rounded=0;whiteSpace=wrap;html=1;rotation=90;" parent="1" vertex="1">
          <mxGeometry x="-41" y="-497" width="321" height="213" as="geometry" />
        </mxCell>
        <mxCell id="msyZA52gmdJhK6XsZQX_-10" value="Página Login" style="html=1;whiteSpace=wrap;rounded=1;" parent="1" vertex="1">
          <mxGeometry x="64.5" y="-374" width="110" height="50" as="geometry" />
        </mxCell>
        <mxCell id="msyZA52gmdJhK6XsZQX_-11" value="Página Registro" style="html=1;whiteSpace=wrap;rounded=1;" parent="1" vertex="1">
          <mxGeometry x="64.5" y="-453" width="110" height="50" as="geometry" />
        </mxCell>
        <mxCell id="-O1WCtpbnKnp9MO-WSxZ-6" value="&lt;b&gt;Páginas No Accesibles&lt;/b&gt;" style="text;html=1;align=center;verticalAlign=middle;whiteSpace=wrap;rounded=0;fontSize=16;" parent="1" vertex="1">
          <mxGeometry x="58.5" y="-515" width="122" height="30" as="geometry" />
        </mxCell>
        <mxCell id="2j-AMi9KaPL6b5V7sGCD-2" value="Página Convertirse en Gestor" style="html=1;whiteSpace=wrap;rounded=1;" vertex="1" parent="1">
          <mxGeometry x="64.5" y="-294" width="110" height="50" as="geometry" />
        </mxCell>
      </root>
    </mxGraphModel>
  </diagram>
</mxfile>
